<svg xmlns="http://www.w3.org/2000/svg" width="1080" height="1350" viewBox="0 0 1080 1350"><defs><linearGradient id="bg" x1="0" y1="0" x2="1" y2="1"><stop offset="0" stop-color="#050607"/><stop offset="0.55" stop-color="#101318"/><stop offset="1" stop-color="#030405"/></linearGradient><radialGradient id="glow"><stop offset="0" stop-color="#d8ad4b" stop-opacity=".45"/><stop offset="1" stop-color="#d8ad4b" stop-opacity="0"/></radialGradient><filter id="blur"><feGaussianBlur stdDeviation="18"/></filter></defs><rect width="1080" height="1350" fill="url(#bg)"/><circle cx="860" cy="260" r="330" fill="url(#glow)" filter="url(#blur)" opacity=".8"/><text x="72" y="95" fill="#d8ad4b" font-family="Arial" font-size="27" font-weight="700" letter-spacing="3">LION ELITE WELLNESS</text><text x="72" y="250" fill="#f5f5f1" font-family="Arial" font-size="70" font-weight="800">STOP CHASING</text><text x="72" y="332" fill="#f5f5f1" font-family="Arial" font-size="70" font-weight="800">THE NAME.</text><text x="72" y="435" fill="#d8ad4b" font-family="Arial" font-size="70" font-weight="800">FOLLOW THE</text><text x="72" y="517" fill="#d8ad4b" font-family="Arial" font-size="70" font-weight="800">MECHANISM.</text><g transform="translate(690 355) rotate(-14)"><line x1="70" y1="0" x2="180" y2="0" stroke="#d8ad4b" stroke-opacity=".45" stroke-width="4"/><circle cx="70" cy="0" r="10" fill="#d8ad4b"/><circle cx="180" cy="0" r="10" fill="#e7edf4"/><line x1="70" y1="84" x2="180" y2="84" stroke="#d8ad4b" stroke-opacity=".45" stroke-width="4"/><circle cx="70" cy="84" r="10" fill="#d8ad4b"/><circle cx="180" cy="84" r="10" fill="#e7edf4"/><line x1="70" y1="168" x2="180" y2="168" stroke="#d8ad4b" stroke-opacity=".45" stroke-width="4"/><circle cx="70" cy="168" r="10" fill="#d8ad4b"/><circle cx="180" cy="168" r="10" fill="#e7edf4"/><line x1="70" y1="252" x2="180" y2="252" stroke="#d8ad4b" stroke-opacity=".45" stroke-width="4"/><circle cx="70" cy="252" r="10" fill="#d8ad4b"/><circle cx="180" cy="252" r="10" fill="#e7edf4"/><line x1="70" y1="336" x2="180" y2="336" stroke="#d8ad4b" stroke-opacity=".45" stroke-width="4"/><circle cx="70" cy="336" r="10" fill="#d8ad4b"/><circle cx="180" cy="336" r="10" fill="#e7edf4"/><line x1="70" y1="420" x2="180" y2="420" stroke="#d8ad4b" stroke-opacity=".45" stroke-width="4"/><circle cx="70" cy="420" r="10" fill="#d8ad4b"/><circle cx="180" cy="420" r="10" fill="#e7edf4"/><line x1="70" y1="504" x2="180" y2="504" stroke="#d8ad4b" stroke-opacity=".45" stroke-width="4"/><circle cx="70" cy="504" r="10" fill="#d8ad4b"/><circle cx="180" cy="504" r="10" fill="#e7edf4"/><line x1="70" y1="588" x2="180" y2="588" stroke="#d8ad4b" stroke-opacity=".45" stroke-width="4"/><circle cx="70" cy="588" r="10" fill="#d8ad4b"/><circle cx="180" cy="588" r="10" fill="#e7edf4"/></g><path d="M690 340 C800 430 690 520 800 610 C910 700 800 790 910 880" fill="none" stroke="#5f91ba" stroke-width="9" opacity=".6"/><path d="M800 340 C690 430 800 520 690 610 C580 700 690 790 580 880" fill="none" stroke="#d8ad4b" stroke-width="9" opacity=".65"/><text x="72" y="1040" fill="#bdbdb9" font-family="Arial" font-size="30">The pathway tells the story.</text><text x="72" y="1090" fill="#bdbdb9" font-family="Arial" font-size="30">The vial name is only the headline.</text><line x1="72" y1="1220" x2="1008" y2="1220" stroke="#d8ad4b" stroke-opacity=".55"/><text x="72" y="1262" fill="#c7c7c7" font-family="Arial" font-size="18" font-weight="700">RESEARCH &amp; EDUCATIONAL USE ONLY • NOT FOR HUMAN CONSUMPTION</text><text x="72" y="1304" fill="#d8ad4b" font-family="Arial" font-size="18" font-weight="700">LIONELITEWELLNESS.COM</text></svg>